# xmcd CD database file
#
# Track frame offsets:
#	150
#	30225
#	61283
#	82933
#	101773
#	128015
#	150123
#	168273
#	191450
#
# Disc length: 2910 seconds
#
# Revision: 0
# Processed by: cddbd v1.4PL0 Copyright (c) Steve Scherf et al.
# Submitted via: CDex 1.50Beta5
#
DISCID=590b5c09
DTITLE=Maria Patti - Five
DYEAR=2000
DGENRE=Jazz
TTITLE0=Five
TTITLE1=Lotus Blossom
TTITLE2=How My Heart Sing
TTITLE3=Forest Flower
TTITLE4=Just One Of Those Things
TTITLE5=My One And Only Love
TTITLE6=S'posin'
TTITLE7=The Days Of Wine And Roses
TTITLE8=Poor Butterfly
EXTD=YEAR: 2000
EXTT0=
EXTT1=
EXTT2=
EXTT3=
EXTT4=
EXTT5=
EXTT6=
EXTT7=
EXTT8=
PLAYORDER=
